<?xml version="1.0" standalone="no"?>
<!DOCTYPE svg PUBLIC "-//W3C//DTD SVG 20010904//EN"
 "http://www.w3.org/TR/2001/REC-SVG-20010904/DTD/svg10.dtd">
<svg version="1.0" xmlns="http://www.w3.org/2000/svg"
 width="512.000000pt" height="512.000000pt" viewBox="0 0 512.000000 512.000000"
 preserveAspectRatio="xMidYMid meet">
<metadata>
Created by potrace 1.14, written by Peter Selinger 2001-2017
</metadata>
<g transform="translate(0.000000,512.000000) scale(0.100000,-0.100000)"
fill="#000000" stroke="none">
<path d="M2379 5116 c-2 -2 -40 -6 -83 -10 -44 -4 -82 -8 -85 -10 -3 -2 -31
-7 -61 -11 -30 -3 -75 -11 -100 -17 -25 -5 -56 -12 -70 -14 -48 -10 -197 -54
-286 -85 -398 -140 -788 -408 -1064 -729 -64 -74 -76 -89 -143 -180 -208 -280
-367 -643 -436 -995 -40 -200 -46 -267 -45 -515 0 -184 3 -241 19 -345 3 -16
7 -43 9 -60 25 -176 102 -435 187 -625 81 -182 215 -404 325 -540 241 -296
507 -518 819 -684 228 -122 538 -225 781 -261 22 -4 50 -8 64 -11 144 -26 531
-26 708 1 75 12 90 14 142 25 30 6 66 13 80 16 111 21 368 110 505 175 714
338 1233 981 1409 1746 31 135 36 165 53 318 10 91 10 409 1 505 -9 85 -22
172 -37 245 -6 28 -13 61 -15 75 -55 276 -217 639 -401 900 -414 583 -1032
963 -1735 1065 -19 3 -53 7 -75 11 -44 6 -460 15 -466 10z m243 -1022 c17 -9
103 -79 192 -157 89 -77 187 -163 220 -191 32 -28 77 -67 100 -87 22 -20 73
-64 111 -97 l70 -61 3 231 c2 189 5 235 17 248 13 15 43 17 234 16 169 -1 222
-4 234 -15 15 -12 17 -57 17 -467 l0 -453 108 -92 c164 -142 208 -190 222
-249 23 -97 -3 -187 -75 -255 -57 -55 -127 -80 -201 -71 l-53 6 -3 -647 -3
-648 -24 -34 c-46 -64 22 -61 -1231 -61 -1253 0 -1185 -3 -1231 61 l-24 34 -3
647 -3 648 -57 -6 c-181 -18 -323 159 -267 334 19 61 54 99 215 239 52 45 105
90 116 100 90 78 138 119 148 128 6 6 45 39 86 75 41 36 80 70 86 75 39 35 92
82 189 165 61 52 112 97 115 100 3 3 70 61 150 130 80 68 147 127 150 130 24
26 233 202 260 219 42 25 89 27 132 5z"/>
<path d="M2520 3989 c-65 -54 -125 -105 -139 -120 -9 -8 -65 -58 -126 -110
-60 -51 -112 -96 -115 -99 -3 -3 -36 -32 -75 -65 -38 -33 -85 -74 -105 -91
-51 -45 -355 -310 -506 -441 -71 -61 -141 -122 -155 -135 -15 -13 -68 -59
-117 -102 -50 -44 -99 -95 -108 -114 -35 -74 8 -174 87 -206 77 -31 119 -16
223 79 14 14 244 213 275 240 13 11 34 29 46 40 41 36 78 69 270 235 105 90
192 166 195 169 3 3 34 31 70 61 36 30 70 59 76 65 65 61 152 133 177 148 35
19 83 22 121 7 14 -5 63 -42 108 -82 46 -40 101 -88 123 -107 22 -19 69 -60
105 -91 59 -52 242 -212 394 -344 112 -97 241 -209 306 -266 159 -141 187
-160 233 -166 63 -9 126 28 156 89 48 98 28 132 -182 314 -93 81 -175 152
-181 158 -6 6 -58 51 -116 100 -58 50 -107 92 -110 95 -3 3 -75 66 -160 140
-85 74 -157 137 -160 140 -3 3 -34 30 -70 60 -36 30 -67 57 -70 60 -3 3 -39
35 -80 70 -41 36 -77 67 -80 70 -3 3 -36 32 -75 65 -38 33 -72 62 -75 65 -35
36 -106 90 -119 90 -9 -1 -27 -10 -41 -21z"/>
<path d="M3420 3651 l1 -246 52 -43 c29 -23 66 -54 82 -70 17 -15 61 -53 98
-85 l67 -59 0 375 0 374 -150 0 -150 0 0 -246z"/>
<path d="M2500 3423 c-25 -21 -59 -50 -75 -64 -17 -15 -68 -60 -115 -100 -47
-41 -87 -76 -90 -79 -3 -3 -54 -48 -115 -100 -60 -52 -126 -109 -145 -126 -19
-17 -93 -82 -165 -144 -71 -62 -146 -127 -165 -144 -19 -17 -79 -69 -132 -115
l-98 -84 0 -659 c0 -435 4 -666 10 -679 10 -18 24 -19 314 -19 l303 0 1 361
c1 232 5 381 13 417 39 190 176 338 374 403 62 21 238 18 305 -5 186 -64 314
-205 359 -392 9 -35 13 -166 13 -418 l1 -366 303 0 c290 0 304 1 314 19 6 13
10 244 10 679 l0 660 -32 27 c-32 27 -150 130 -172 150 -6 6 -38 33 -71 60
-33 28 -69 59 -80 70 -11 11 -49 45 -85 75 -36 30 -81 69 -100 86 -19 17 -78
69 -130 114 -52 45 -122 106 -155 135 -33 28 -118 102 -188 163 -71 62 -136
112 -145 112 -10 0 -38 -17 -62 -37z m343 -387 c14 -3 28 -13 31 -22 5 -13 8
-238 6 -516 0 -103 17 -98 -320 -98 -249 0 -291 2 -304 16 -13 12 -16 42 -16
157 -2 311 1 431 10 448 6 10 24 19 43 21 57 5 525 1 550 -6z"/>
<path d="M2408 2942 l-68 -3 0 -219 0 -220 220 0 220 0 0 220 0 220 -62 0
c-35 1 -103 2 -153 3 -49 1 -120 1 -157 -1z"/>
<path d="M2440 2194 c-70 -19 -129 -54 -183 -108 -43 -42 -94 -120 -102 -154
-3 -9 -9 -37 -15 -62 -9 -36 -15 -477 -11 -727 l1 -33 430 0 430 0 1 23 c1 81
1 596 -1 657 -7 197 -124 346 -321 409 -48 15 -162 13 -229 -5z m-135 -575
c12 -12 12 -276 -1 -288 -19 -18 -50 -21 -70 -7 -17 13 -19 27 -19 151 0 124
2 138 19 151 20 14 52 11 71 -7z"/>
</g>
</svg>
